<svg xmlns="http://www.w3.org/2000/svg" width="1180" height="610" viewBox="0 0 1180 610">
<defs>
<marker id="arrow" viewBox="0 0 10 10" refX="9" refY="5" markerWidth="8" markerHeight="8" orient="auto-start-reverse">
<path d="M 0 0 L 10 5 L 0 10 z" fill="#222"/>
</marker>
<style>
text { font-family="PingFang SC, Microsoft YaHei, Noto Sans CJK SC, Arial, sans-serif"; fill:#111; font-size:16px; }
.title { font-size:26px; font-weight:700; }
.subtitle { font-size:16px; }
.box { fill:white; stroke:#222; stroke-width:2; rx:8; ry:8; }
.subbox { fill:#fafafa; stroke:#222; stroke-width:1.8; rx:6; ry:6; }
.line { stroke:#222; stroke-width:2; fill:none; marker-end:url(#arrow); }
.dash { stroke:#222; stroke-width:2; fill:none; stroke-dasharray:8 6; marker-end:url(#arrow); }
.thin { stroke:#222; stroke-width:1.5; fill:none; }
.caption { font-size:20px; font-weight:700; }
.small { font-size:14px; }
.tiny { font-size:12px; }
</style>
</defs>
<text class="title" x="40" y="40" text-anchor="start">EduCollab 网络部署拓扑图</text>
<rect class="box" x="60" y="220" width="170" height="80"/>
<text x="145.0" y="254.4" text-anchor="middle" dominant-baseline="middle" style="font-size:16px">Browser</text>
<text x="145.0" y="274.4" text-anchor="middle" dominant-baseline="middle" style="font-size:16px">浏览器</text>
<rect class="box" x="300" y="120" width="190" height="80"/>
<text x="395.0" y="154.4" text-anchor="middle" dominant-baseline="middle" style="font-size:16px">Frontend</text>
<text x="395.0" y="174.4" text-anchor="middle" dominant-baseline="middle" style="font-size:16px">React + Vite</text>
<rect class="box" x="300" y="320" width="190" height="80"/>
<text x="395.0" y="354.4" text-anchor="middle" dominant-baseline="middle" style="font-size:16px">Collab Server</text>
<text x="395.0" y="374.4" text-anchor="middle" dominant-baseline="middle" style="font-size:16px">Hocuspocus</text>
<rect class="box" x="590" y="220" width="190" height="80"/>
<text x="685.0" y="254.4" text-anchor="middle" dominant-baseline="middle" style="font-size:16px">Backend</text>
<text x="685.0" y="274.4" text-anchor="middle" dominant-baseline="middle" style="font-size:16px">Spring Boot</text>
<rect class="box" x="900" y="80" width="180" height="76"/>
<text x="990.0" y="118.0" text-anchor="middle" dominant-baseline="middle" style="font-size:16px">MySQL</text>
<rect class="box" x="900" y="190" width="180" height="76"/>
<text x="990.0" y="222.4" text-anchor="middle" dominant-baseline="middle" style="font-size:16px">File Storage</text>
<text x="990.0" y="242.4" text-anchor="middle" dominant-baseline="middle" style="font-size:16px">data/</text>
<rect class="box" x="900" y="300" width="180" height="76"/>
<text x="990.0" y="338.0" text-anchor="middle" dominant-baseline="middle" style="font-size:16px">Git Bare Repos</text>
<rect class="box" x="900" y="410" width="180" height="76"/>
<text x="990.0" y="442.4" text-anchor="middle" dominant-baseline="middle" style="font-size:16px">AI API</text>
<text x="990.0" y="462.4" text-anchor="middle" dominant-baseline="middle" style="font-size:16px">OpenAI-compatible</text>
<path class="line" d="M 230 245 L 300 160"/>
<path class="line" d="M 230 275 L 300 360"/>
<path class="line" d="M 490 160 L 590 245"/>
<path class="line" d="M 490 360 L 590 275"/>
<path class="line" d="M 780 245 L 900 118"/>
<path class="line" d="M 780 245 L 900 228"/>
<path class="line" d="M 780 245 L 900 338"/>
<path class="line" d="M 780 275 L 900 448"/>
<text class="small" x="380" y="144" text-anchor="start">/api/*</text>
<text class="small" x="373" y="347" text-anchor="start">ws://collab</text>
<text class="small" x="390" y="258" text-anchor="start">业务聚合</text>
<text class="small" x="412" y="302" text-anchor="start">协同持久化</text>
<text class="caption" x="360" y="560" text-anchor="start">图5-7 EduCollab 网络部署拓扑图</text>
</svg>