<svg xmlns="http://www.w3.org/2000/svg" width="1180" height="730" viewBox="0 0 1180 730">
<defs>
<marker id="arrow" viewBox="0 0 10 10" refX="9" refY="5" markerWidth="8" markerHeight="8" orient="auto-start-reverse">
<path d="M 0 0 L 10 5 L 0 10 z" fill="#222"/>
</marker>
<style>
text { font-family="PingFang SC, Microsoft YaHei, Noto Sans CJK SC, Arial, sans-serif"; fill:#111; font-size:16px; }
.title { font-size:26px; font-weight:700; }
.subtitle { font-size:16px; }
.box { fill:white; stroke:#222; stroke-width:2; rx:8; ry:8; }
.subbox { fill:#fafafa; stroke:#222; stroke-width:1.8; rx:6; ry:6; }
.line { stroke:#222; stroke-width:2; fill:none; marker-end:url(#arrow); }
.dash { stroke:#222; stroke-width:2; fill:none; stroke-dasharray:8 6; marker-end:url(#arrow); }
.thin { stroke:#222; stroke-width:1.5; fill:none; }
.caption { font-size:20px; font-weight:700; }
.small { font-size:14px; }
.tiny { font-size:12px; }
</style>
</defs>
<text class="title" x="40" y="40" text-anchor="start">EduCollab 界面结构导航图</text>
<rect class="box" x="460" y="80" width="220" height="74"/>
<text x="570.0" y="117.0" text-anchor="middle" dominant-baseline="middle" style="font-size:16px">登录页 / Login</text>
<rect class="box" x="460" y="200" width="220" height="74"/>
<text x="570.0" y="237.0" text-anchor="middle" dominant-baseline="middle" style="font-size:16px">仪表盘 / Dashboard</text>
<path class="line" d="M 570 154 L 570 200"/>
<rect class="subbox" x="60" y="360" width="180" height="78"/>
<text x="150.0" y="393.4" text-anchor="middle" dominant-baseline="middle" style="font-size:16px">课程</text>
<text x="150.0" y="413.4" text-anchor="middle" dominant-baseline="middle" style="font-size:16px">Classes</text>
<path class="line" d="M 570 274 L 150 360"/>
<rect class="subbox" x="270" y="360" width="180" height="78"/>
<text x="360.0" y="393.4" text-anchor="middle" dominant-baseline="middle" style="font-size:16px">团队</text>
<text x="360.0" y="413.4" text-anchor="middle" dominant-baseline="middle" style="font-size:16px">Teams</text>
<path class="line" d="M 570 274 L 360 360"/>
<rect class="subbox" x="480" y="360" width="180" height="78"/>
<text x="570.0" y="393.4" text-anchor="middle" dominant-baseline="middle" style="font-size:16px">项目</text>
<text x="570.0" y="413.4" text-anchor="middle" dominant-baseline="middle" style="font-size:16px">Projects</text>
<path class="line" d="M 570 274 L 570 360"/>
<rect class="subbox" x="690" y="360" width="180" height="78"/>
<text x="780.0" y="393.4" text-anchor="middle" dominant-baseline="middle" style="font-size:16px">文档</text>
<text x="780.0" y="413.4" text-anchor="middle" dominant-baseline="middle" style="font-size:16px">Documents</text>
<path class="line" d="M 570 274 L 780 360"/>
<rect class="subbox" x="900" y="360" width="180" height="78"/>
<text x="990.0" y="393.4" text-anchor="middle" dominant-baseline="middle" style="font-size:16px">管理员后台</text>
<text x="990.0" y="413.4" text-anchor="middle" dominant-baseline="middle" style="font-size:16px">Admin</text>
<path class="line" d="M 570 274 L 990 360"/>
<rect class="subbox" x="40" y="530" width="210" height="96"/>
<text x="145.0" y="578.0" text-anchor="middle" dominant-baseline="middle" style="font-size:15px">课程概览/成员/团队/项目/作业/文件</text>
<rect class="subbox" x="270" y="530" width="210" height="96"/>
<text x="375.0" y="578.0" text-anchor="middle" dominant-baseline="middle" style="font-size:15px">团队概览/成员/任务/项目/文件/总结</text>
<rect class="subbox" x="500" y="530" width="210" height="96"/>
<text x="605.0" y="578.0" text-anchor="middle" dominant-baseline="middle" style="font-size:15px">项目概览/任务/讨论/文件/仓库/成员/发布</text>
<rect class="subbox" x="730" y="530" width="210" height="96"/>
<text x="835.0" y="578.0" text-anchor="middle" dominant-baseline="middle" style="font-size:15px">Markdown 文档 / Office 文档 / 聚合文档页</text>
<path class="line" d="M 150 438 L 145 530"/>
<path class="line" d="M 360 438 L 375 530"/>
<path class="line" d="M 570 438 L 605 530"/>
<path class="line" d="M 780 438 L 835 530"/>
<text class="caption" x="360" y="690" text-anchor="start">图5-8 EduCollab 界面结构导航图</text>
</svg>